<?xml version="1.0" encoding="UTF-8"?>
<!-- Created with Inkscape (http://www.inkscape.org/) -->
<svg width="1366" height="768" version="1.1" viewBox="0 0 1366 768" xml:space="preserve" xmlns="http://www.w3.org/2000/svg">
<rect x="275.33" y="86.717" width="850.91" height="637.37" fill="#8eac9b" fill-opacity=".33898" stroke="#0d0808"/>
<g opacity="0">
<path d="m409.8 301.76v61.535h51.529v44.029h-23.863v46.002h53.156v-43.986h0.0156v-46.045h0.0547v-61.535z" fill="#fbfdf0" stroke="#000" stroke-width=".99808"/>
<rect id="0-08" x="658.02" y="230.33" width="42.156" height="69.175" fill="#fbfcf0" stroke="#0d0808"/>
<g fill="#fbfdf0" stroke="#0d0808">
<rect id="0-01" x="382.79" y="590.28" width="317.68" height="132.37"/>
<rect id="0-12" x="1016.2" y="194.72" width="109.95" height="104.76" stroke-width="1.0091"/>
<rect id="0-11" x="964.05" y="83.601" width="161.92" height="112.6"/>
<rect x="807.4" y="83.738" width="156.75" height="112.29"/>
<rect x="649.16" y="83.738" width="158.1" height="112.29"/>
<path d="m274.78 512.97v54.037h0.0488v155.76h107.99v-157.21h-60.709v-52.596z" stroke-width="1.1363"/></g>

<g fill="#fbfcf0" stroke="#0d0808">
<rect x="603.99" y="405.47" width="60.935" height="142.57"/>
<rect x="274.79" y="189.97" width="109.75" height="111.65"/>
<rect x="484.53" y="83.737" width="137.39" height="110.02"/></g></g><g fill="#fbfcf0" stroke="#0d0808">
<rect x="417.15" y="590.57" width="253.34" height="5.7649" stroke-width=".98374"/>
<path d="m410.21 301.56v2.8027h-0.42773v58.766h6.2539 40.553v43.986h-19.104v6.4199h25.459v-6.4199h-0.04883v-45.955h-0.06055v-4.3106h-46.799v-49.113h74.486v-6.1758h-80.312zm74.414 25.912v119.88h-41.07v-22.238h-6.4062v27.492h0.28711v1.0234h53.316v-6.2774h-0.07422v-119.88h-6.0527z" stroke-width=".873"/>
<rect transform="rotate(-90)" x="-547.57" y="603.88" width="142.05" height="5.9973" stroke-width=".75133"/><g><path transform="rotate(-90)" d="m-83.752 807.06h-0.15625v-6.3242h-0.009766v-144.45h0.019531v-6.9082h-111.99v2.0625h-0.0586v14.613h6.6035v-9.7676h99.32v144.45h-99.5v-106.79h-6.2012v106.79h-0.17383v6.9062h0.12305v1.4785h-0.06055v14.615h6.6074v-9.7676h99.35v144.44h-99.529v-106.79h-6.2051v106.79h-0.17188v6.9062h0.02149v14.084h6.5976v-10.18h99.207v150.55h-99.387v-111.3h-6.1953v7.5137h-74.457v6.1875h74.457v97.604h-0.17187v1.041h-99.215v-98.621h6.0801v-6.5235h-11.82v0.2715h-0.34375v104.87h-0.04297v6.0918h105.34v0.0665h111.86v-7.1993h-0.009766v-150.55h0.019531v-3.9043h0.078125v-6.9062h-0.011719v-144.44h0.021485v-6.9082z" stroke-width=".926"/><path transform="rotate(-90)" d="m-83.461 482.87h-110.41v1.8144h-0.05859v12.867h6.5117v-8.5996h97.922v127.18h-98.1v-94.025h-6.1152v94.025h-0.16993v6.0801h110.41v-6.0801h-0.009766v-127.18h0.019531v-6.082z" stroke-width=".867"/><path d="m274.68 512.75v6.3164h0.02344v197.54h-0.0332v6.084h110.07v-6.084h-104.18v-197.54h35.541v52.809h0.07813v0.0625h66.521v-6.2246h-60.346v-52.916h-3.0391v-0.04688h-44.639z" stroke-width=".866"/></g><path d="m694.54 589.08v127.82h-305.56v-126.53h-6.0331v129.15h0.12109v3.0974h317.23v-4.3916h0.28125v-129.15z" stroke-width="1.0961"/><path d="m274.45 190.23v6.082h0.0254v102.56h0.28125v2.6562h110.17v-4.5918h0.1211v-10.748h-6.5332v9.2578h-97.938v-99.135h98.082v70.381h6.1992v-70.381h0.03125v-6.082h-110.44z" stroke-width=".866"/></g></svg>
