<?xml version="1.0" encoding="UTF-8"?>
<!-- Created with Inkscape (http://www.inkscape.org/) -->
<svg width="1e3" height="768" version="1.1" viewBox="0 0 1e3 768" xml:space="preserve" xmlns="http://www.w3.org/2000/svg">

<rect x="38.485" y="78.286" width="850.91" height="637.37" fill="#8eac9b" fill-opacity=".33898" stroke="#0d0808"/><g>
<path d="m172.96 293.33v61.535h51.529v44.029h-23.863v46.002h53.156v-43.986h0.0156v-46.045h0.0547v-61.535z" fill="#fbfdf0" stroke="#000" stroke-width=".99808"/>
<rect x="421.18" y="221.9" width="42.156" height="69.175" fill="#fbfcf0" stroke="#0d0808"/><g fill="#fbfdf0" stroke="#0d0808">
<rect id="0-01" x="145.94" y="581.85" width="317.68" height="132.37"/>
<rect x="779.33" y="186.29" width="109.95" height="104.76" stroke-width="1.0091"/>
<rect x="727.21" y="75.17" width="161.92" height="112.6"/>
<rect x="570.56" y="75.307" width="156.75" height="112.29"/>
<rect x="412.32" y="75.307" width="158.1" height="112.29"/><path d="m37.941 504.54v54.037h0.0488v155.76h107.99v-157.21h-60.709v-52.596z" stroke-width="1.1363"/>
</g><g fill="#fbfcf0" stroke="#0d0808"><rect x="367.14" y="397.04" width="60.935" height="142.57"/>
<rect x="37.943" y="181.53" width="109.75" height="111.65"/><rect x="247.69" y="75.305" width="137.39" height="110.02"/></g></g><g fill="#fbfcf0" stroke="#0d0808"><rect x="180.31" y="582.13" width="253.34" height="5.7649" stroke-width=".98374"/><path d="m173.37 293.13v2.8027h-0.42773v58.766h46.807v43.986h-19.104v6.4199h25.459v-6.4199h-0.0488v-45.955h-0.0605v-4.3106h-46.799v-49.113h74.486v-6.1758zm74.414 25.912v119.88h-41.07v-22.238h-6.4062v27.492h0.28711v1.0234h53.316v-6.2774h-0.0742v-119.88z" stroke-width=".873"/><rect transform="rotate(-90)" x="-539.14" y="367.04" width="142.05" height="5.9973" stroke-width=".75133"/><g><path d="m570.22 75.321v0.15625h-6.3242v0.0098h-144.45v-0.01953h-6.9082v111.99h2.0625v0.0586h14.613v-6.6035h-9.7676v-99.32h144.45v99.5h-106.79v6.2012h106.79v0.17383h6.9062v-0.12305h1.4785v0.0606h14.615v-6.6074h-9.7676v-99.35h144.44v99.529h-106.79v6.2051h106.79v0.17188h6.9062v-0.0215h14.084v-6.5976h-10.18v-99.207h150.55v99.387h-111.3v6.1953h7.5137v74.457h6.1875v-74.457h97.604v0.17187h1.041v99.215h-98.621v-6.0801h-6.5235v11.82h0.2715v0.34375h104.87v0.043h6.0918v-105.34h0.067v-111.86h-7.1993v0.0098h-150.55v-0.01953h-3.9043v-0.07813h-6.9062v0.01172h-144.44v-0.02148z" stroke-width=".926"/><path d="m246.03 75.03v110.41h1.8144v0.0586h12.867v-6.5117h-8.5996v-97.922h127.18v98.1h-94.025v6.1152h94.025v0.16993h6.0801v-110.41h-6.0801v0.0098h-127.18v-0.01953z" stroke-width=".867"/><path d="m37.841 504.31v6.3164h0.0234v197.54h-0.0332v6.084h110.07v-6.084h-104.18v-197.54h35.541v52.809h0.0781v0.0625h66.521v-6.2246h-60.346v-52.916h-3.0391v-0.0469z" stroke-width=".866"/></g><path d="m457.7 580.65v127.82h-305.56v-126.53h-6.0331v129.15h0.12109v3.0974h317.23v-4.3916h0.28125v-129.15z" stroke-width="1.0961"/><path d="m37.61 181.8v6.082h0.0254v102.56h0.28125v2.6562h110.17v-4.5918h0.1211v-10.748h-6.5332v9.2578h-97.937v-99.135h98.082v70.381h6.1992v-70.381h0.0312v-6.082z" stroke-width=".866"/></g></svg>
